<svg width="24" height="24" viewBox="0 0 24 24" fill="none" xmlns="http://www.w3.org/2000/svg">
<path fill-rule="evenodd" clip-rule="evenodd" d="M19.0026 8.54436C19.104 8.22709 19.0026 7.99396 18.5199 7.99396H16.9237C16.5178 7.99396 16.3307 8.19535 16.2293 8.41742C16.2293 8.41742 15.4175 10.2734 14.2676 11.479C13.8956 11.828 13.7265 11.939 13.5236 11.939C13.4221 11.939 13.2752 11.828 13.2752 11.5107V8.54436C13.2752 8.16364 13.1575 7.99396 12.8192 7.99396H10.3109C10.0573 7.99396 9.90477 8.17066 9.90477 8.33813C9.90477 8.69904 10.4797 8.78227 10.539 9.79753V12.0025C10.539 12.4859 10.4459 12.5736 10.243 12.5736C9.70184 12.5736 8.38558 10.7093 7.60491 8.57607C7.45192 8.16144 7.29847 7.99396 6.89053 7.99396H5.29434C4.83829 7.99396 4.74707 8.19535 4.74707 8.41742C4.74707 8.81401 5.28821 10.781 7.26672 13.3826C8.58572 15.1592 10.4441 16.1223 12.1351 16.1223C13.1498 16.1223 13.2753 15.9084 13.2753 15.54V14.1972C13.2753 13.7694 13.3714 13.684 13.6927 13.684C13.9294 13.684 14.3353 13.795 15.2823 14.6516C16.3645 15.6669 16.543 16.1223 17.1517 16.1223H18.7479C19.204 16.1223 19.432 15.9084 19.3005 15.4863C19.1565 15.0656 18.6398 14.4552 17.9541 13.7316C17.5821 13.3191 17.0241 12.875 16.8549 12.6529C16.6182 12.3674 16.6858 12.2404 16.8549 11.9866C16.8549 11.9866 18.7997 9.41681 19.0026 8.54436Z" fill="#DBDDE1"/>
</svg>
