<svg width="24" height="24" viewBox="0 0 24 24" fill="none" xmlns="http://www.w3.org/2000/svg">
<path d="M6 17.5557L6.86097 14.3544C6.16662 13.1073 5.94602 11.6521 6.23965 10.2558C6.53327 8.85943 7.32144 7.61562 8.45951 6.75261C9.59757 5.88959 11.0092 5.46525 12.4354 5.55744C13.8615 5.64964 15.2066 6.25219 16.2236 7.25453C17.2407 8.25687 17.8616 9.59176 17.9724 11.0143C18.0832 12.4367 17.6765 13.8514 16.8268 14.9987C15.9772 16.1459 14.7416 16.9488 13.3469 17.26C11.9521 17.5712 10.4918 17.3698 9.23373 16.6928L6 17.5557ZM9.38966 15.4948L9.58965 15.6133C10.5009 16.1525 11.5651 16.3756 12.6166 16.2479C13.6681 16.1202 14.6478 15.6488 15.4029 14.9072C16.158 14.1656 16.6462 13.1955 16.7914 12.148C16.9366 11.1005 16.7306 10.0344 16.2056 9.11598C15.6805 8.19754 14.8659 7.47829 13.8887 7.07032C12.9114 6.66235 11.8265 6.58857 10.8028 6.86048C9.77918 7.13239 8.8744 7.73472 8.22946 8.5736C7.58452 9.41248 7.23565 10.4408 7.23722 11.4983C7.23637 12.3751 7.47927 13.235 7.93888 13.9822L8.0643 14.1886L7.58297 15.9754L9.38966 15.4948Z" fill="#DBDDE1"/>
<path fill-rule="evenodd" clip-rule="evenodd" d="M14.2437 12.3203C14.1265 12.2259 13.9892 12.1594 13.8424 12.126C13.6955 12.0926 13.543 12.0931 13.3963 12.1274C13.176 12.2188 13.0336 12.5639 12.8913 12.7365C12.8612 12.7779 12.8171 12.8069 12.7672 12.8181C12.7173 12.8293 12.665 12.822 12.6201 12.7974C11.8135 12.482 11.1373 11.9036 10.7015 11.1562C10.6644 11.1095 10.6468 11.0503 10.6525 10.991C10.6582 10.9316 10.6867 10.8768 10.732 10.8381C10.8908 10.6811 11.0074 10.4868 11.071 10.2729C11.0851 10.0371 11.031 9.80214 10.9151 9.59613C10.8255 9.30732 10.6549 9.05016 10.4236 8.85503C10.3043 8.80145 10.172 8.78349 10.0427 8.80331C9.91335 8.82312 9.79254 8.87987 9.69481 8.9667C9.52515 9.11284 9.39048 9.29511 9.30073 9.50009C9.21097 9.70507 9.16842 9.92754 9.1762 10.1511C9.17672 10.2767 9.19266 10.4017 9.22365 10.5234C9.30236 10.8157 9.42341 11.095 9.58295 11.3524C9.69807 11.5496 9.82366 11.7406 9.95921 11.9244C10.3997 12.5281 10.9534 13.0406 11.5896 13.4336C11.9089 13.6333 12.2501 13.7957 12.6065 13.9175C12.9768 14.0851 13.3856 14.1494 13.7895 14.1037C14.0197 14.0689 14.2377 13.9782 14.4245 13.8395C14.6113 13.7008 14.7611 13.5185 14.8606 13.3084C14.9192 13.1815 14.9369 13.0397 14.9115 12.9023C14.8505 12.6215 14.4742 12.4556 14.2437 12.3203Z" fill="#DBDDE1"/>
</svg>
